<?xml version="1.0" encoding="utf-8"?>
<!-- Generator: Adobe Illustrator 23.0.6, SVG Export Plug-In . SVG Version: 6.00 Build 0)  -->
<svg version="1.1" id="Layer_1" xmlns="http://www.w3.org/2000/svg" xmlns:xlink="http://www.w3.org/1999/xlink" x="0px" y="0px"
	 viewBox="0 0 24 24" style="enable-background:new 0 0 24 24;" xml:space="preserve">
<style type="text/css">
	.st0{fill-rule:evenodd;clip-rule:evenodd;fill:#E5DF6E;}
</style>
<path class="st0" d="M15.8,18.8c-2.4-0.6-5.2-2-4.1-4.1C15,8.4,12.5,5,9,5c-3.6,0-6,3.5-2.6,9.7c1.1,2.1-1.7,3.5-4.1,4.1
	C0.1,19.3,0,20.4,0,22.3L0,23h18l0-0.7C18,20.4,17.9,19.3,15.8,18.8z M14.2,11c0.4-0.9,0.8-2.1,0.8-2.9c-0.5-0.7-0.8-1.6-0.8-2.6
	c0-2.6,2.3-4.5,4.9-4.5C21.7,1,24,2.9,24,5.5c0,2.8-2.8,5.3-6.5,4.3C16.8,10.3,15.3,10.8,14.2,11z M18.4,4.6l-1.6,0.2L18,6l-0.3,1.6
	l1.4-0.8l1.4,0.8L20.2,6l1.2-1.1l-1.6-0.2l-0.7-1.4C19.1,3.2,18.4,4.6,18.4,4.6z"/>
</svg>
